<svg xmlns="http://www.w3.org/2000/svg" width="15.32" height="15.32" viewBox="0 0 15.32 15.32">
    <defs>
        <style>
            .cls-1{fill:#fff}
        </style>
    </defs>
    <g id="application" transform="translate(-213.303 -353)">
        <path id="패스_1234" d="M5.773 11.064A5.3 5.3 0 0 1 9.231 6.1a4.39 4.39 0 0 0 .39-1.771c0-2.391 0-4.33-2.886-4.33S3.849 1.938 3.849 4.33A4.3 4.3 0 0 0 5.773 7.9v.8C2.509 8.965 0 10.568 0 12.507h5.973a5.273 5.273 0 0 1-.2-1.443z" class="cls-1" transform="translate(213.303 353)"/>
        <path id="패스_1235" d="M18.33 14a4.33 4.33 0 1 0 4.33 4.33A4.329 4.329 0 0 0 18.33 14zm2.405 4.811h-1.924v1.924h-.962v-1.924h-1.925v-.962h1.924v-1.925h.962v1.924h1.924z" class="cls-1" transform="translate(205.964 345.661)"/>
    </g>
</svg>
