<svg xmlns="http://www.w3.org/2000/svg" width="16" height="12.8" viewBox="0 0 16 12.8">
    <path fill="#cfcfcf" d="M8 8a2.4 2.4 0 1 0 2.4 2.4A2.4 2.4 0 0 0 8 8zm6.4-2.4h-1.92a.71.71 0 0 1-.631-.456l-.5-1.489a.712.712 0 0 0-.632-.455H5.281a.711.711 0 0 0-.631.454l-.5 1.49a.711.711 0 0 1-.631.456H1.6A1.6 1.6 0 0 0 0 7.2v7.2A1.6 1.6 0 0 0 1.6 16h12.8a1.6 1.6 0 0 0 1.6-1.6V7.2a1.6 1.6 0 0 0-1.6-1.6zM8 14.4a4 4 0 1 1 4-4 4 4 0 0 1-4 4zm6-6.24a.561.561 0 1 1 .56-.561.56.56 0 0 1-.56.561z" transform="translate(-.001 -3.2)"/>
</svg>
