<svg xmlns="http://www.w3.org/2000/svg" width="16" height="14.222" viewBox="0 0 16 14.222">
    <path fill="#95989a" d="M6.667 1.778a6.219 6.219 0 0 0-2.019.328 5.136 5.136 0 0 0-1.576.856 3.165 3.165 0 0 0-1.294 2.433 2.77 2.77 0 0 0 .416 1.443A4.04 4.04 0 0 0 3.447 8.1a1.777 1.777 0 0 1 .783 1.222q.019.125.03.251l.113-.108a1.778 1.778 0 0 1 1.255-.518 1.8 1.8 0 0 1 .224.014 6.488 6.488 0 0 0 .816.052 6.219 6.219 0 0 0 2.019-.328 5.136 5.136 0 0 0 1.576-.856A3.165 3.165 0 0 0 11.556 5.4a3.164 3.164 0 0 0-1.293-2.433 5.136 5.136 0 0 0-1.576-.856 6.219 6.219 0 0 0-2.019-.328zm0-1.778c3.682 0 6.667 2.416 6.667 5.4s-2.985 5.4-6.667 5.4a8.321 8.321 0 0 1-1.04-.065 6.384 6.384 0 0 1-4.738 1.72V12.1A2.577 2.577 0 0 0 2.5 9.96a2.5 2.5 0 0 0-.028-.372A5.076 5.076 0 0 1 0 5.4C0 2.416 2.985 0 6.667 0zm7.167 12.093a2.08 2.08 0 0 0 1.278 1.83v.3a5.308 5.308 0 0 1-3.988-1.474 7.226 7.226 0 0 1-.9.056 6.727 6.727 0 0 1-3.524-.959 8.538 8.538 0 0 0 5.345-1.815 6.518 6.518 0 0 0 1.7-2.047 5.542 5.542 0 0 0 .644-2.584c0-.145-.006-.289-.017-.433A4.187 4.187 0 0 1 16 8.18a4.342 4.342 0 0 1-2.142 3.594 2.1 2.1 0 0 0-.024.319z"/>
</svg>
