<svg xmlns="http://www.w3.org/2000/svg" width="17" height="13.19" viewBox="0 0 17 13.19">
    <path stroke="#95989a" d="M13.582 5.342a.19.19 0 0 0-.115.363C14.956 6.179 15.62 6.887 15.62 8a2.917 2.917 0 0 1-1.441 2.129.19.19 0 0 0-.083.157v1.456a3.03 3.03 0 0 1-1.191-.821.192.192 0 0 0-.178-.061c-.109.021-.219.051-.332.081a2.336 2.336 0 0 1-.585.106 3.655 3.655 0 0 1-2.363-.725.191.191 0 0 0-.226.307 4 4 0 0 0 2.589.8 2.616 2.616 0 0 0 .684-.119c.068-.019.135-.037.2-.053a3.224 3.224 0 0 0 1.552.93.182.182 0 0 0 .038 0 .191.191 0 0 0 .19-.19v-1.612A3.094 3.094 0 0 0 16 8c0-1.288-.768-2.133-2.418-2.658zm-1.01-.2C12.571 2.211 9.9 0 6.353 0 2.79 0 0 2.259 0 5.144a4.734 4.734 0 0 0 2.286 3.717v2.528a.19.19 0 0 0 .19.19.2.2 0 0 0 .078-.017 8.32 8.32 0 0 0 2.468-1.831 8.669 8.669 0 0 0 1.522.176c3.6 0 6.027-1.915 6.027-4.764zM6.544 9.526a8.738 8.738 0 0 1-1.555-.189.193.193 0 0 0-.179.063 8.152 8.152 0 0 1-2.143 1.682v-2.32a.19.19 0 0 0-.083-.162 4.431 4.431 0 0 1-2.2-3.461C.381 2.473 3 .381 6.353.381c3.328 0 5.837 2.047 5.837 4.762 0 2.622-2.269 4.383-5.646 4.383zm-.258-5.145a.762.762 0 1 0 .762.762.763.763 0 0 0-.762-.762zm0 1.143a.381.381 0 1 1 .381-.381.381.381 0 0 1-.381.381zm2.666-1.143a.762.762 0 1 0 .762.762.763.763 0 0 0-.762-.762zm0 1.143a.381.381 0 1 1 .381-.381.381.381 0 0 1-.381.381zM3.619 4.417a.762.762 0 1 0 .762.762.763.763 0 0 0-.762-.762zm0 1.143A.381.381 0 1 1 4 5.179a.381.381 0 0 1-.381.381z" transform="translate(.5 .5)"/>
</svg>
