<svg xmlns="http://www.w3.org/2000/svg" width="54.419" height="26" viewBox="0 0 54.419 26">
    <path fill="#cbcbcb" d="M-3771 1043zm0 0l-13-13 13-13 4.569 4.568-1.67.964 7.2-4.155a4.6 4.6 0 0 1 2.294-.617 4.626 4.626 0 0 1 2.269.6 4.564 4.564 0 0 1 1.25 1.039h-.01a9.284 9.284 0 0 1 .958-.2l3.632-.575a9.288 9.288 0 0 1 1.449-.115 9.109 9.109 0 0 1 3.191.575 9.238 9.238 0 0 1 .858.37 11.157 11.157 0 0 1 3.669-.613h.552a11.143 11.143 0 0 1 4.365.881 11.175 11.175 0 0 1 3.564 2.4 11.173 11.173 0 0 1 2.4 3.565 11.135 11.135 0 0 1 .881 4.365 11.142 11.142 0 0 1-.88 4.365 11.19 11.19 0 0 1-2.4 3.565 11.172 11.172 0 0 1-3.565 2.4 11.145 11.145 0 0 1-4.365.882h-.552a11.146 11.146 0 0 1-4.365-.881 11.206 11.206 0 0 1-1.783-.952 11.176 11.176 0 0 0 1.783.952l.121.05a9.308 9.308 0 0 1-1.413.338l-3.631.575a9.3 9.3 0 0 1-1.449.115 9.1 9.1 0 0 1-3.189-.575 9.2 9.2 0 0 1-2.25-1.217l.081.059-2.9 1.676a4.593 4.593 0 0 1-2.293.616 4.622 4.622 0 0 1-2.268-.6 4.592 4.592 0 0 1-1.716-1.7l-5.515-9.553a4.57 4.57 0 0 1-.582-1.73 4.584 4.584 0 0 1 .123-1.758 4.587 4.587 0 0 1 .772-1.583 4.572 4.572 0 0 1 1.369-1.207l.707-.408-1.247-1.247-7.8 7.8 7.8 7.8 2.082-2.082 1.889 3.271L-3771 1043zm13.472-3.328l-.018-.013zm-.021-.016l-.017-.012zm-.02-.014l-.017-.012zm-.02-.015l-.014-.011zm-.02-.015l-.01-.007zm-.052-.039zm-.018-.014zm-.019-.015zm-.019-.014zm-.017-.013h-.005zm-.019-.014h-.005zm-.018-.014l-.006-.005zm-.019-.015l-.007-.006zm-.018-.014l-.014-.011zm-.018-.015l-.039-.031zm-.041-.032l-.037-.031zm-.037-.031l-.115-.1.114.1zm-.147-.122zm-1.022-17.7l-9.553 5.515a.914.914 0 0 0-.428.558.913.913 0 0 0 .092.7l5.516 9.553a.922.922 0 0 0 .8.459.919.919 0 0 0 .459-.123l2.2-1.27c.07.119.143.236.219.351q-.151-.231-.288-.471a9.166 9.166 0 0 1-1.094-3.122l-.633-3.995a9.135 9.135 0 0 1 .154-3.647 9.148 9.148 0 0 1 1.489-3.194 9.194 9.194 0 0 1 1.24-1.388.9.9 0 0 0-.168.075zm.075 16.763l-.132-.155c.042.051.085.1.129.151zm-.136-.159l-.006-.007zm-.019-.022zm9.875-.159l-.021-.021zm-.029-.028l-.013-.013zm-.036-.037zm-.433-15.645l-3.814.6a5.477 5.477 0 0 0-3.6 2.207 5.474 5.474 0 0 0-.988 4.1l.618 3.9a5.487 5.487 0 0 0 5.44 4.654 5.564 5.564 0 0 0 .87-.069l1.463-.232a11.144 11.144 0 0 1-1.9-3.028 11.147 11.147 0 0 1-.882-4.364 11.14 11.14 0 0 1 .881-4.365 11.17 11.17 0 0 1 2.3-3.462c-.131.012-.265.028-.4.048zm.981 7.78a7.546 7.546 0 0 0 7.538 7.538h.368a7.546 7.546 0 0 0 7.537-7.538 7.546 7.546 0 0 0-7.537-7.538h-.368a7.546 7.546 0 0 0-7.536 7.537zm-10.958 7.282v-.007zm-.011-.017l-.011-.016zm10.485-15.196zm-8.423-1.568zm.021-.014h.006zm.022-.014l.009-.006zm.022-.014l.012-.008zm.022-.014l.021-.013zm.047-.029l-.024.015.024-.015.023-.015zm.025-.016q.146-.09.294-.175c-.098.057-.196.116-.294.176zm.3-.176l.023-.013zm.024-.014l.021-.012zm.031-.018l.009-.005zm11.476-.527q-.415.175-.812.382.4-.206.812-.382.335-.142.679-.261c-.225.079-.453.167-.679.261zm-9.49-.292h.009zm.021-.006h.014zm.022-.006l.025-.007zm.025-.007l.025-.007z" transform="translate(3784.001 -1016.999)"/>
</svg>
